<svg width="83" height="70" viewBox="0 0 83 70" fill="none" xmlns="http://www.w3.org/2000/svg">
<path d="M2.1875 58.683C5.0605 63.9275 7.11113 68.7555 12.7828 68.492H70.2194C75.8889 68.7555 77.9395 63.9275 80.8125 58.683M48.1003 49.4563H68.0349C76.6666 49.4563 71.658 42.5224 68.0349 37.4415L43.8247 3.49677C43.2552 2.70202 42.5221 1.49927 41.5 1.49927C40.4779 1.49927 39.7469 2.70202 39.1753 3.49677L14.9651 37.4436C11.3441 42.5224 6.33337 49.4584 14.9651 49.4584H34.9019M47.1355 32.9238C47.1355 37.5393 44.6131 41.2814 41.5021 41.2835C38.3911 41.2835 35.8688 37.5414 35.8666 32.9238C35.8666 28.304 38.389 24.5619 41.5021 24.5619C44.6131 24.5619 47.1334 28.3061 47.1334 32.9238" stroke="black" stroke-width="3" stroke-linecap="round" stroke-linejoin="round"/>
</svg>
