<svg width="75" height="91" viewBox="0 0 75 91" fill="none" xmlns="http://www.w3.org/2000/svg">
<path d="M37.5 50.375C40.8815 50.375 44.1245 49.0317 46.5156 46.6406C48.9067 44.2495 50.25 41.0065 50.25 37.625C50.25 34.2435 48.9067 31.0005 46.5156 28.6094C44.1245 26.2183 40.8815 24.875 37.5 24.875C34.1185 24.875 30.8755 26.2183 28.4844 28.6094C26.0933 31.0005 24.75 34.2435 24.75 37.625C24.75 41.0065 26.0933 44.2495 28.4844 46.6406C30.8755 49.0317 34.1185 50.375 37.5 50.375Z" stroke="black" stroke-width="3" stroke-linecap="round" stroke-linejoin="round"/>
<path d="M49.3575 8.9375H55.0312C61.215 8.9375 66.1875 13.91 66.1875 20.0938V25.8313M66.1875 49.5462V55.1562C66.1875 61.34 61.215 66.3125 55.0312 66.3125M19.9688 66.3125C13.785 66.3125 8.8125 61.34 8.8125 55.1562V49.5462M8.8125 25.7675V20.0938C8.8125 13.91 13.785 8.9375 19.9688 8.9375H25.6425" stroke="black" stroke-width="3" stroke-linecap="round" stroke-linejoin="round"/>
<path d="M66.1879 25.7674L70.2042 29.7199C74.5392 34.1187 74.5392 41.1949 70.2042 45.5299L66.1242 49.5462M53.4379 66.3124V88.625L37.5004 75.875L21.5629 88.625V66.3124M8.81291 49.4824L4.79666 45.5299C3.7558 44.4934 2.9299 43.2615 2.36635 41.9049C1.80279 40.5484 1.5127 39.0939 1.5127 37.6249C1.5127 36.156 1.80279 34.7015 2.36635 33.3449C2.9299 31.9884 3.7558 30.7565 4.79666 29.7199L8.81291 25.7674M25.5792 8.93742L29.5954 4.92117C33.9942 0.586171 41.0704 0.586171 45.4054 4.92117L49.3579 8.93742" stroke="black" stroke-width="3" stroke-linecap="round" stroke-linejoin="round"/>
</svg>
