<svg width="87" height="90" viewBox="0 0 87 90" fill="none" xmlns="http://www.w3.org/2000/svg">
<path d="M43.4998 1.66675V10.3334M23.9998 8.16675L30.4998 14.6667M62.9998 8.16675L56.4998 14.6667M53.3148 72.6121C54.6842 68.4304 55.3688 66.3417 56.7685 64.9031C57.4358 64.2155 58.1971 63.658 59.0522 63.2304C60.8332 62.3334 62.9998 62.3334 67.3332 62.3334C71.6665 62.3334 73.8332 62.3334 75.6185 63.2304C76.4678 63.658 77.2291 64.2155 77.9022 64.9031C79.3018 66.3417 79.9822 68.4304 81.3558 72.6121L82.7685 76.9237C84.4758 82.1324 85.3295 84.7324 84.0555 86.5351C82.7772 88.3334 80.0818 88.3334 74.6868 88.3334H59.9838C54.5888 88.3334 51.8892 88.3334 50.6152 86.5351C49.3368 84.7324 50.1905 82.1324 51.8978 76.9237L53.3148 72.6121ZM29.4772 37.9454C30.8465 33.7637 31.5355 31.6751 32.9308 30.2364C33.604 29.5489 34.3652 28.9913 35.2145 28.5637C36.9998 27.6667 39.1665 27.6667 43.4998 27.6667C47.8332 27.6667 49.9998 27.6667 51.7852 28.5637C52.6345 28.9913 53.3957 29.5489 54.0688 30.2364C55.4642 31.6751 56.1488 33.7637 57.5225 37.9454L58.9352 42.2571C60.6425 47.4657 61.4918 50.0657 60.2222 51.8684C58.9438 53.6667 56.2485 53.6667 50.8492 53.6667H36.1505C30.7512 53.6667 28.0558 53.6667 26.7818 51.8684C25.5035 50.0657 26.3572 47.4657 28.0645 42.2571L29.4772 37.9454ZM5.64384 72.6121C7.01751 68.4304 7.70218 66.3417 9.10184 64.9031C9.76918 64.2155 10.5304 63.658 11.3855 63.2304C13.1665 62.3334 15.3332 62.3334 19.6665 62.3334C23.9998 62.3334 26.1665 62.3334 27.9518 63.2304C28.8012 63.658 29.5624 64.2155 30.2355 64.9031C31.6352 66.3417 32.3155 68.4304 33.6892 72.6121L35.1018 76.9237C36.8092 82.1324 37.6628 84.7324 36.3888 86.5351C35.1105 88.3334 32.4152 88.3334 27.0202 88.3334H12.3172C6.92218 88.3334 4.22251 88.3334 2.94851 86.5351C1.67018 84.7324 2.52384 82.1324 4.23118 76.9237L5.64384 72.6121Z" stroke="black" stroke-width="3" stroke-linecap="round" stroke-linejoin="round"/>
</svg>
