<svg width="50" height="44" viewBox="0 0 50 44" fill="none" xmlns="http://www.w3.org/2000/svg">
<path d="M1.875 35.9312C3.565 39.0162 4.77125 41.8562 8.1075 41.7012H41.8937C45.2287 41.8562 46.435 39.0162 48.125 35.9312M28.8825 30.5037H40.6087C45.6862 30.5037 42.74 26.4249 40.6087 23.4362L26.3675 3.4687C26.0325 3.0012 25.6012 2.2937 25 2.2937C24.3987 2.2937 23.9687 3.0012 23.6325 3.4687L9.39125 23.4374C7.26125 26.4249 4.31375 30.5049 9.39125 30.5049H21.1187M28.315 20.7787C28.315 23.4937 26.8312 25.6949 25.0012 25.6962C23.1712 25.6962 21.6875 23.4949 21.6862 20.7787C21.6862 18.0612 23.17 15.8599 25.0012 15.8599C26.8312 15.8599 28.3137 18.0624 28.3137 20.7787" stroke="white" stroke-width="3" stroke-linecap="round" stroke-linejoin="round"/>
</svg>
