<svg width="56" height="40" viewBox="0 0 56 40" fill="none" xmlns="http://www.w3.org/2000/svg">
<mask id="path-1-inside-1_627_1795" fill="white">
<path d="M16.75 17.5H39.5C40.25 17.5 40.75 16.75 40.5 16L38 1C38 0.5 37.25 0 36.75 0H19.25C18.75 0 18 0.5 18 1L15.5 16V16.25C15.5 17 16 17.5 16.75 17.5ZM20.25 2.5H35.75L37.75 15H18.25L20.25 2.5ZM53 23.5C53 23 52.5 22.5 51.75 22.5H34.25C33.75 22.5 33 23 33 23.5L30.5 38.5V38.75C30.5 39.5 31 40 31.75 40H54.5C55.25 40 55.75 39.25 55.5 38.5L53 23.5ZM33.25 37.5L35.25 25H50.75L52.75 37.5H33.25ZM21.75 22.5H4.25C3.75 22.5 3 23 3 23.5L0.5 38.5V38.75C0.5 39.5 1 40 1.75 40H24.5C25.25 40 25.75 39.25 25.5 38.5L23 23.5C23 23 22.25 22.5 21.75 22.5ZM3.25 37.5L5.25 25H20.75L22.75 37.5H3.25Z"/>
</mask>
<path d="M16.75 17.5H39.5C40.25 17.5 40.75 16.75 40.5 16L38 1C38 0.5 37.25 0 36.75 0H19.25C18.75 0 18 0.5 18 1L15.5 16V16.25C15.5 17 16 17.5 16.75 17.5ZM20.25 2.5H35.75L37.75 15H18.25L20.25 2.5ZM53 23.5C53 23 52.5 22.5 51.75 22.5H34.25C33.75 22.5 33 23 33 23.5L30.5 38.5V38.75C30.5 39.5 31 40 31.75 40H54.5C55.25 40 55.75 39.25 55.5 38.5L53 23.5ZM33.25 37.5L35.25 25H50.75L52.75 37.5H33.25ZM21.75 22.5H4.25C3.75 22.5 3 23 3 23.5L0.5 38.5V38.75C0.5 39.5 1 40 1.75 40H24.5C25.25 40 25.75 39.25 25.5 38.5L23 23.5C23 23 22.25 22.5 21.75 22.5ZM3.25 37.5L5.25 25H20.75L22.75 37.5H3.25Z" fill="white"/>
<path d="M40.5 16L-392.527 88.1712L-386.864 122.147L-375.972 154.824L40.5 16ZM38 1H-401V37.3328L-395.027 73.1712L38 1ZM18 1L451.027 73.1712L457 37.3328V1H18ZM15.5 16L-417.527 -56.1712L-423.5 -20.3328V16H15.5ZM20.25 2.5V-436.5H-354.094L-413.236 -66.8578L20.25 2.5ZM35.75 2.5L469.236 -66.8578L410.094 -436.5H35.75V2.5ZM37.75 15V454H552.574L471.236 -54.3578L37.75 15ZM18.25 15L-415.236 -54.3578L-496.574 454H18.25V15ZM53 23.5H-386V59.8327L-380.027 95.6712L53 23.5ZM33 23.5L466.027 95.6712L472 59.8327V23.5H33ZM30.5 38.5L-402.527 -33.6712L-408.5 2.16725V38.5H30.5ZM55.5 38.5L-377.527 110.671L-371.864 144.647L-360.972 177.324L55.5 38.5ZM33.25 37.5L-400.236 -31.8578L-481.574 476.5H33.25V37.5ZM35.25 25V-414H-339.094L-398.236 -44.3578L35.25 25ZM50.75 25L484.236 -44.3578L425.094 -414H50.75V25ZM52.75 37.5V476.5H567.574L486.236 -31.8578L52.75 37.5ZM3 23.5L436.027 95.6712L442 59.8327V23.5H3ZM0.5 38.5L-432.527 -33.6712L-438.5 2.16725V38.5H0.5ZM25.5 38.5L-407.527 110.671L-401.864 144.647L-390.972 177.324L25.5 38.5ZM23 23.5H-416V59.8327L-410.027 95.6712L23 23.5ZM3.25 37.5L-430.236 -31.8578L-511.574 476.5H3.25V37.5ZM5.25 25V-414H-369.094L-428.236 -44.3578L5.25 25ZM20.75 25L454.236 -44.3578L395.094 -414H20.75V25ZM22.75 37.5V476.5H537.574L456.236 -31.8578L22.75 37.5ZM16.75 456.5H39.5V-421.5H16.75V456.5ZM39.5 456.5C375.964 456.5 540.266 127.059 456.972 -122.824L-375.972 154.824C-458.766 -93.5594 -295.464 -421.5 39.5 -421.5V456.5ZM473.527 -56.1712L471.027 -71.1712L-395.027 73.1712L-392.527 88.1712L473.527 -56.1712ZM477 1C477 -208.492 338.733 -322.56 300.963 -350.887C250.757 -388.542 160.06 -439 36.75 -439V439C-86.0595 439 -176.132 388.792 -225.838 351.512C-256.225 328.722 -294.079 294.12 -327.395 244.146C-360.174 194.978 -401 111.424 -401 1H477ZM36.75 -439H19.25V439H36.75V-439ZM19.25 -439C-104.06 -439 -194.757 -388.542 -244.963 -350.887C-282.733 -322.56 -421 -208.492 -421 1H457C457 111.424 416.174 194.978 383.395 244.146C350.079 294.12 312.225 328.722 281.838 351.512C232.132 388.792 142.06 439 19.25 439V-439ZM-415.027 -71.1712L-417.527 -56.1712L448.527 88.1712L451.027 73.1712L-415.027 -71.1712ZM-423.5 16V16.25H454.5V16H-423.5ZM-423.5 16.25C-423.5 116.387 -388.205 233.947 -294.576 327.576C-200.947 421.205 -83.3867 456.5 16.75 456.5V-421.5C116.137 -421.5 233.072 -386.455 326.264 -293.264C419.455 -200.072 454.5 -83.1367 454.5 16.25H-423.5ZM20.25 441.5H35.75V-436.5H20.25V441.5ZM-397.736 71.8578L-395.736 84.3578L471.236 -54.3578L469.236 -66.8578L-397.736 71.8578ZM37.75 -424H18.25V454H37.75V-424ZM451.736 84.3578L453.736 71.8578L-413.236 -66.8578L-415.236 -54.3578L451.736 84.3578ZM492 23.5C492 -280.504 229.026 -416.5 51.75 -416.5V461.5C-124.026 461.5 -386 326.504 -386 23.5H492ZM51.75 -416.5H34.25V461.5H51.75V-416.5ZM34.25 -416.5C-89.0593 -416.5 -179.756 -366.042 -229.962 -328.388C-267.733 -300.06 -406 -185.993 -406 23.5H472C472 133.924 431.174 217.479 398.395 266.646C365.079 316.62 327.225 351.222 296.837 374.013C247.131 411.292 157.059 461.5 34.25 461.5V-416.5ZM-400.027 -48.6712L-402.527 -33.6712L463.527 110.671L466.027 95.6712L-400.027 -48.6712ZM-408.5 38.5V38.75H469.5V38.5H-408.5ZM-408.5 38.75C-408.5 138.887 -373.205 256.447 -279.576 350.076C-185.947 443.705 -68.3867 479 31.75 479V-399C131.137 -399 248.072 -363.955 341.264 -270.764C434.455 -177.572 469.5 -60.6367 469.5 38.75H-408.5ZM31.75 479H54.5V-399H31.75V479ZM54.5 479C390.964 479 555.266 149.559 471.972 -100.324L-360.972 177.324C-443.766 -71.0594 -280.464 -399 54.5 -399V479ZM488.527 -33.6712L486.027 -48.6712L-380.027 95.6712L-377.527 110.671L488.527 -33.6712ZM466.736 106.858L468.736 94.3578L-398.236 -44.3578L-400.236 -31.8578L466.736 106.858ZM35.25 464H50.75V-414H35.25V464ZM-382.736 94.3578L-380.736 106.858L486.236 -31.8578L484.236 -44.3578L-382.736 94.3578ZM52.75 -401.5H33.25V476.5H52.75V-401.5ZM21.75 -416.5H4.25V461.5H21.75V-416.5ZM4.25 -416.5C-119.059 -416.5 -209.756 -366.042 -259.962 -328.388C-297.733 -300.06 -436 -185.993 -436 23.5H442C442 133.924 401.174 217.479 368.395 266.646C335.079 316.62 297.225 351.222 266.837 374.013C217.131 411.292 127.059 461.5 4.25 461.5V-416.5ZM-430.027 -48.6712L-432.527 -33.6712L433.527 110.671L436.027 95.6712L-430.027 -48.6712ZM-438.5 38.5V38.75H439.5V38.5H-438.5ZM-438.5 38.75C-438.5 138.887 -403.205 256.447 -309.576 350.076C-215.947 443.705 -98.3867 479 1.75 479V-399C101.137 -399 218.072 -363.955 311.264 -270.764C404.455 -177.572 439.5 -60.6367 439.5 38.75H-438.5ZM1.75 479H24.5V-399H1.75V479ZM24.5 479C360.964 479 525.266 149.559 441.972 -100.324L-390.972 177.324C-473.766 -71.0594 -310.464 -399 24.5 -399V479ZM458.527 -33.6712L456.027 -48.6712L-410.027 95.6712L-407.527 110.671L458.527 -33.6712ZM462 23.5C462 -185.993 323.733 -300.06 285.962 -328.388C235.756 -366.042 145.059 -416.5 21.75 -416.5V461.5C-101.059 461.5 -191.131 411.292 -240.837 374.013C-271.225 351.222 -309.079 316.62 -342.395 266.646C-375.174 217.479 -416 133.924 -416 23.5H462ZM436.736 106.858L438.736 94.3578L-428.236 -44.3578L-430.236 -31.8578L436.736 106.858ZM5.25 464H20.75V-414H5.25V464ZM-412.736 94.3578L-410.736 106.858L456.236 -31.8578L454.236 -44.3578L-412.736 94.3578ZM22.75 -401.5H3.25V476.5H22.75V-401.5Z" fill="white" mask="url(#path-1-inside-1_627_1795)"/>
</svg>
