<svg width="41" height="42" viewBox="0 0 41 42" fill="none" xmlns="http://www.w3.org/2000/svg">
<mask id="path-1-inside-1_627_1783" fill="white">
<path d="M39.2125 41.385L23.5575 25.73C22.3075 26.795 20.87 27.6192 19.245 28.2025C17.62 28.7858 15.9867 29.0775 14.345 29.0775C10.3417 29.0775 6.95335 27.6917 4.18002 24.92C1.40669 22.1483 0.0200195 18.7608 0.0200195 14.7575C0.0200195 10.7542 1.40502 7.36499 4.17502 4.58999C6.94502 1.81499 10.3317 0.425825 14.335 0.422491C18.3384 0.419158 21.7284 1.80582 24.505 4.58249C27.2817 7.35916 28.67 10.7483 28.67 14.75C28.67 16.4867 28.3625 18.1675 27.7475 19.7925C27.1325 21.4175 26.3242 22.8075 25.3225 23.9625L40.9775 39.615L39.2125 41.385ZM14.3475 26.575C17.6642 26.575 20.4642 25.4333 22.7475 23.15C25.0309 20.8667 26.1725 18.0658 26.1725 14.7475C26.1725 11.4292 25.0309 8.62916 22.7475 6.34749C20.4642 4.06582 17.6642 2.92416 14.3475 2.92249C11.0309 2.92082 8.23002 4.06249 5.94502 6.34749C3.66002 8.63249 2.51835 11.4325 2.52002 14.7475C2.52169 18.0625 3.66335 20.8625 5.94502 23.1475C8.22669 25.4325 11.0267 26.5742 14.345 26.5725"/>
</mask>
<path d="M39.2125 41.385L23.5575 25.73C22.3075 26.795 20.87 27.6192 19.245 28.2025C17.62 28.7858 15.9867 29.0775 14.345 29.0775C10.3417 29.0775 6.95335 27.6917 4.18002 24.92C1.40669 22.1483 0.0200195 18.7608 0.0200195 14.7575C0.0200195 10.7542 1.40502 7.36499 4.17502 4.58999C6.94502 1.81499 10.3317 0.425825 14.335 0.422491C18.3384 0.419158 21.7284 1.80582 24.505 4.58249C27.2817 7.35916 28.67 10.7483 28.67 14.75C28.67 16.4867 28.3625 18.1675 27.7475 19.7925C27.1325 21.4175 26.3242 22.8075 25.3225 23.9625L40.9775 39.615L39.2125 41.385ZM14.3475 26.575C17.6642 26.575 20.4642 25.4333 22.7475 23.15C25.0309 20.8667 26.1725 18.0658 26.1725 14.7475C26.1725 11.4292 25.0309 8.62916 22.7475 6.34749C20.4642 4.06582 17.6642 2.92416 14.3475 2.92249C11.0309 2.92082 8.23002 4.06249 5.94502 6.34749C3.66002 8.63249 2.51835 11.4325 2.52002 14.7475C2.52169 18.0625 3.66335 20.8625 5.94502 23.1475C8.22669 25.4325 11.0267 26.5742 14.345 26.5725" fill="white"/>
<path d="M39.2125 41.385L-48.4687 129.066L39.3367 216.872L127.018 128.942L39.2125 41.385ZM23.5575 25.73L111.239 -61.9513L30.2849 -142.905L-56.8604 -68.6573L23.5575 25.73ZM14.345 29.0775V-94.9225V29.0775ZM25.3225 23.9625L-68.3562 -57.2798L-144.033 29.9821L-62.3517 111.651L25.3225 23.9625ZM40.9775 39.615L128.783 127.172L216.223 39.484L128.652 -48.0733L40.9775 39.615ZM-646.986 26.575C-646.986 391.819 -350.897 687.908 14.3475 687.908C379.592 687.908 675.681 391.819 675.681 26.575C675.681 -338.669 379.592 -634.758 14.3475 -634.758C-350.897 -634.758 -646.986 -338.669 -646.986 26.575ZM-646.988 26.5725C-646.988 391.817 -350.899 687.906 14.345 687.906C379.589 687.906 675.678 391.817 675.678 26.5725C675.678 -338.672 379.589 -634.761 14.345 -634.761C-350.899 -634.761 -646.988 -338.672 -646.988 26.5725ZM126.894 -46.2963L111.239 -61.9513L-64.1237 113.411L-48.4687 129.066L126.894 -46.2963ZM-56.8604 -68.6573C-46.1441 -77.7876 -34.3757 -84.2965 -22.6502 -88.5056L61.1403 144.911C76.1157 139.535 90.7591 131.378 103.975 120.117L-56.8604 -68.6573ZM-22.6502 -88.5056C-11.5356 -92.4955 0.979216 -94.9225 14.345 -94.9225V153.077C30.9942 153.077 46.7757 150.067 61.1403 144.911L-22.6502 -88.5056ZM14.345 -94.9225C26.9277 -94.9225 41.1976 -92.6824 55.743 -86.7333C70.3397 -80.7632 82.4179 -72.1989 91.8349 -62.7876L-83.4749 112.628C-56.9069 139.18 -21.7576 153.077 14.345 153.077V-94.9225ZM91.8349 -62.7876C101.259 -53.3695 109.837 -41.2848 115.817 -26.6751C121.777 -12.1169 124.02 2.16584 124.02 14.7575H-123.98C-123.98 50.8852 -110.062 86.0568 -83.4749 112.628L91.8349 -62.7876ZM124.02 14.7575C124.02 27.3311 121.783 41.5881 115.844 56.1207C109.884 70.7045 101.334 82.7763 91.9353 92.1921L-83.5853 -83.0122C-110.103 -56.447 -123.98 -21.32 -123.98 14.7575H124.02ZM91.9353 92.1921C82.5255 101.619 70.4504 110.202 55.8507 116.191C41.3024 122.158 27.0264 124.412 14.4383 124.422L14.2318 -123.577C-21.8862 -123.547 -57.0377 -109.608 -83.5853 -83.0122L91.9353 92.1921ZM14.4383 124.422C1.81412 124.433 -12.4923 122.191 -27.0661 116.23C-41.6876 110.249 -53.7693 101.671 -63.1762 92.2637L112.186 -83.0987C85.6257 -109.659 50.4379 -123.608 14.2318 -123.577L14.4383 124.422ZM-63.1762 92.2637C-72.5688 82.8711 -81.1371 70.8092 -87.117 56.2111C-93.0779 41.6596 -95.33 27.3692 -95.33 14.75H152.67C152.67 -21.4352 138.71 -56.5749 112.186 -83.0987L-63.1762 92.2637ZM-95.33 14.75C-95.33 1.4841 -92.915 -11.7057 -88.2248 -24.0986L143.72 63.6836C149.64 48.0406 152.67 31.4892 152.67 14.75H-95.33ZM-88.2248 -24.0986C-84.3655 -34.2958 -78.1406 -45.9975 -68.3562 -57.2798L119.001 105.205C130.789 91.6125 138.631 77.1308 143.72 63.6836L-88.2248 -24.0986ZM-62.3517 111.651L-46.6967 127.303L128.652 -48.0733L112.997 -63.7258L-62.3517 111.651ZM-46.8277 -47.9421L-48.5927 -46.1721L127.018 128.942L128.783 127.172L-46.8277 -47.9421ZM14.3475 150.575C49.553 150.575 84.1946 137.065 110.429 110.831L-64.9337 -64.5312C-55.2006 -74.2644 -42.793 -83.0238 -27.8824 -89.1034C-13.0378 -95.1561 1.51381 -97.425 14.3475 -97.425V150.575ZM110.429 110.831C136.676 84.5841 150.173 49.9358 150.173 14.7475H-97.8275C-97.8275 1.92274 -95.5614 -12.6246 -89.5108 -27.4686C-83.4327 -42.3799 -74.6728 -54.7921 -64.9337 -64.5312L110.429 110.831ZM150.173 14.7475C150.173 -20.4423 136.674 -55.1081 110.397 -81.3658L-64.9017 94.0607C-74.6533 84.3163 -83.4224 71.8963 -89.5059 56.9762C-95.5616 42.1243 -97.8275 27.5717 -97.8275 14.7475H150.173ZM110.397 -81.3658C84.1718 -107.572 49.5658 -121.06 14.4098 -121.077L14.2852 126.922C1.47031 126.916 -13.0591 124.646 -27.8824 118.602C-42.7723 112.531 -55.1701 103.785 -64.9017 94.0607L110.397 -81.3658ZM14.4098 -121.077C-20.8439 -121.095 -55.5034 -107.567 -81.7362 -81.3337L93.6263 94.0287C83.897 103.758 71.4873 112.522 56.5648 118.605C41.7068 124.661 27.1382 126.929 14.2852 126.922L14.4098 -121.077ZM-81.7362 -81.3337C-107.956 -55.114 -121.498 -20.4611 -121.48 14.8098L126.52 14.6851C126.526 27.5472 124.256 42.1201 118.197 56.9786C112.113 71.9003 103.349 84.3055 93.6263 94.0287L-81.7362 -81.3337ZM-121.48 14.8098C-121.462 49.9815 -107.963 84.5632 -81.8002 110.765L93.6902 -64.4697C103.396 -54.7495 112.132 -42.364 118.2 -27.4836C124.241 -12.6677 126.514 1.86078 126.52 14.6851L-121.48 14.8098ZM-81.8002 110.765C-55.5334 137.07 -20.8319 150.59 14.4073 150.572L14.2827 -97.4275C27.1257 -97.4339 41.7005 -95.1691 56.5736 -89.1047C71.5145 -83.0127 83.9443 -74.2299 93.6902 -64.4697L-81.8002 110.765Z" fill="white" mask="url(#path-1-inside-1_627_1783)"/>
</svg>
